<svg xmlns="http://www.w3.org/2000/svg" xmlns:xlink="http://www.w3.org/1999/xlink" width="548" height="413" viewBox="0 0 548 413" fill="none">
<g  clip-path="url(#clip-path-0_25)">
<g filter="url(#filter_0_1)">
<rect x="3" y="0.5" width="544" height="408"   fill="url(#linear_fill_0_1)" >
</rect>
</g>
<g filter="url(#filter_0_52)">
<path    stroke="url(#linear_border_0_52_0)" stroke-width="48"  stroke-linecap="round"  d="M253 130L451.5 130">
</path>
</g>
<g filter="url(#filter_0_16)">
<circle cx="101" cy="225.655029296875" r="24"   fill="#A1EBFF" >
</circle>
</g>
<g filter="url(#filter_0_30)">
<circle cx="157" cy="130" r="24"   fill="#B3EEFF" >
</circle>
</g>
<g filter="url(#filter_0_41)">
<rect x="2" y="298" width="544" height="125"   fill="#24A0DA" >
</rect>
<path    stroke="rgba(48, 174, 235, 1)" stroke-width="48"  stroke-linecap="round"  d="M197 226.295L435.46 226.295">
</path>
<path d="M254.333 299.5L409.333 299.5C409.886 299.5 410.333 299.052 410.333 298.5L410.333 298C397.079 298 386.333 287.255 386.333 274C386.333 260.745 397.079 250 410.333 250L410.333 249.5C410.333 248.948 409.886 248.5 409.333 248.5L254.333 248.5C253.781 248.5 253.333 248.948 253.333 249.5L253.333 250.02C266.125 250.545 276.333 261.08 276.333 274C276.333 286.92 266.125 297.455 253.333 297.98L253.333 298.5C253.333 299.052 253.781 299.5 254.333 299.5Z" fill-rule="evenodd"  fill="url(#linear_fill_0_68)" >
</path>
</g>
</g>
<defs>
<clipPath id="clip-path-0_25">
<path d="M4 387L4 22C4 10.9543 12.9543 2 24 2L524 2C535.046 2 544 10.9543 544 22L544 387C544 398.046 535.046 407 524 407L24 407C12.9543 407 4 398.046 4 387Z" fill="white"/>
</clipPath>
<linearGradient id="linear_fill_0_1" x1="3" y1="204.5" x2="547" y2="204.5" gradientUnits="userSpaceOnUse">
<stop offset="0" stop-color="#2C79C7"  />
<stop offset="1" stop-color="#0D559D"  />
</linearGradient>
<filter id="filter_0_1" x="-1" y="-1.5" width="552" height="416" filterUnits="userSpaceOnUse" color-interpolation-filters="sRGB">
<feFlood flood-opacity="0" result="feFloodId_0_1"/>
<feColorMatrix in="SourceAlpha" type="matrix" values="0 0 0 0 0 0 0 0 0 0 0 0 0 0 0 0 0 0 127 0" result="hardAlpha_0_1"/>
<feOffset dx="0" dy="2"/>
<feGaussianBlur stdDeviation="2"/>
<feComposite in2="hardAlpha_0_1" operator="out"/>
<feColorMatrix type="matrix" values="0 0 0 0 0 0 0 0 0 0 0 0 0 0 0 0 0 0 0.25 0"/>
<feBlend mode="normal" in2="feFloodId_0_1" result="dropShadow_1_0_1"/>
<feBlend mode="normal" in="SourceGraphic" in2="dropShadow_1_0_1" result="shape_0_1"/>
</filter>
<linearGradient id="linear_border_0_52_0" x1="191.42138671875" y1="130.00050354003906" x2="451.5" y2="130" gradientUnits="userSpaceOnUse">
<stop offset="0" stop-color="#56D8FC"  />
<stop offset="1" stop-color="#30AEEB"  />
</linearGradient>
<filter id="filter_0_52" x="209" y="88" width="286.5" height="88" filterUnits="userSpaceOnUse" color-interpolation-filters="sRGB">
<feFlood flood-opacity="0" result="feFloodId_0_52"/>
<feColorMatrix in="SourceAlpha" type="matrix" values="0 0 0 0 0 0 0 0 0 0 0 0 0 0 0 0 0 0 127 0" result="hardAlpha_0_52"/>
<feOffset dx="0" dy="2"/>
<feGaussianBlur stdDeviation="10"/>
<feComposite in2="hardAlpha_0_52" operator="out"/>
<feColorMatrix type="matrix" values="0 0 0 0 0 0 0 0 0 0 0 0 0 0 0 0 0 0 0.25 0"/>
<feBlend mode="normal" in2="feFloodId_0_52" result="dropShadow_1_0_52"/>
<feBlend mode="normal" in="SourceGraphic" in2="dropShadow_1_0_52" result="shape_0_52"/>
</filter>
<filter id="filter_0_16" x="57" y="183.655029296875" width="88" height="88" filterUnits="userSpaceOnUse" color-interpolation-filters="sRGB">
<feFlood flood-opacity="0" result="feFloodId_0_16"/>
<feColorMatrix in="SourceAlpha" type="matrix" values="0 0 0 0 0 0 0 0 0 0 0 0 0 0 0 0 0 0 127 0" result="hardAlpha_0_16"/>
<feOffset dx="0" dy="2"/>
<feGaussianBlur stdDeviation="10"/>
<feComposite in2="hardAlpha_0_16" operator="out"/>
<feColorMatrix type="matrix" values="0 0 0 0 0 0 0 0 0 0 0 0 0 0 0 0 0 0 0.25 0"/>
<feBlend mode="normal" in2="feFloodId_0_16" result="dropShadow_1_0_16"/>
<feBlend mode="normal" in="SourceGraphic" in2="dropShadow_1_0_16" result="shape_0_16"/>
</filter>
<filter id="filter_0_30" x="113" y="88" width="88" height="88" filterUnits="userSpaceOnUse" color-interpolation-filters="sRGB">
<feFlood flood-opacity="0" result="feFloodId_0_30"/>
<feColorMatrix in="SourceAlpha" type="matrix" values="0 0 0 0 0 0 0 0 0 0 0 0 0 0 0 0 0 0 127 0" result="hardAlpha_0_30"/>
<feOffset dx="0" dy="2"/>
<feGaussianBlur stdDeviation="10"/>
<feComposite in2="hardAlpha_0_30" operator="out"/>
<feColorMatrix type="matrix" values="0 0 0 0 0 0 0 0 0 0 0 0 0 0 0 0 0 0 0.25 0"/>
<feBlend mode="normal" in2="feFloodId_0_30" result="dropShadow_1_0_30"/>
<feBlend mode="normal" in="SourceGraphic" in2="dropShadow_1_0_30" result="shape_0_30"/>
</filter>
<linearGradient id="linear_fill_0_68" x1="334.0001220703125" y1="297.8226089477539" x2="334.0001220703125" y2="250.48236846923828" gradientUnits="userSpaceOnUse">
<stop offset="0" stop-color="#24A0DA"  />
<stop offset="1" stop-color="#30AEEB"  />
</linearGradient>
<filter id="filter_0_41" x="-18" y="184.29458618164062" width="584" height="260.7054138183594" filterUnits="userSpaceOnUse" color-interpolation-filters="sRGB">
<feFlood flood-opacity="0" result="feFloodId_0_41"/>
<feColorMatrix in="SourceAlpha" type="matrix" values="0 0 0 0 0 0 0 0 0 0 0 0 0 0 0 0 0 0 127 0" result="hardAlpha_0_41"/>
<feOffset dx="0" dy="2"/>
<feGaussianBlur stdDeviation="10"/>
<feComposite in2="hardAlpha_0_41" operator="out"/>
<feColorMatrix type="matrix" values="0 0 0 0 0 0 0 0 0 0 0 0 0 0 0 0 0 0 0.25 0"/>
<feBlend mode="normal" in2="feFloodId_0_41" result="dropShadow_1_0_41"/>
<feBlend mode="normal" in="SourceGraphic" in2="dropShadow_1_0_41" result="shape_0_41"/>
</filter>
</defs>
</svg>
